<svg width="981" height="981" viewBox="0 0 981 981" fill="none" xmlns="http://www.w3.org/2000/svg">
<path d="M981 490.5C981 761.396 761.396 981 490.5 981C219.604 981 0 761.396 0 490.5C0 219.604 219.604 0 490.5 0C761.396 0 981 219.604 981 490.5ZM230.913 490.5C230.913 633.866 347.134 750.087 490.5 750.087C633.866 750.087 750.087 633.866 750.087 490.5C750.087 347.134 633.866 230.913 490.5 230.913C347.134 230.913 230.913 347.134 230.913 490.5Z" fill="#3E3E3E" fill-opacity="0.72"/>
<path d="M750 491C750 634.042 634.042 750 491 750C347.958 750 232 634.042 232 491C232 347.958 347.958 232 491 232C634.042 232 750 347.958 750 491ZM296.23 491C296.23 598.568 383.432 685.77 491 685.77C598.568 685.77 685.77 598.568 685.77 491C685.77 383.432 598.568 296.23 491 296.23C383.432 296.23 296.23 383.432 296.23 491Z" fill="#E6E6E6" fill-opacity="0.53"/>
<path d="M717 491C717 615.816 615.816 717 491 717C366.184 717 265 615.816 265 491C265 366.184 366.184 265 491 265C615.816 265 717 366.184 717 491ZM294.952 491C294.952 599.274 382.726 687.048 491 687.048C599.274 687.048 687.048 599.274 687.048 491C687.048 382.726 599.274 294.952 491 294.952C382.726 294.952 294.952 382.726 294.952 491Z" fill="#E6E6E6" fill-opacity="0.53"/>
</svg>
